<svg width="24" height="24" viewBox="0 0 24 24" fill="none" xmlns="http://www.w3.org/2000/svg">
<path fill-rule="evenodd" clip-rule="evenodd" d="M7.78172 3.24181C7.59774 3.08359 7.36249 2.99766 7.11984 3.00005L7.11 3.00015V3.0001H4.11062C3.9719 3.00027 3.83473 3.02931 3.70784 3.08536C3.58084 3.14145 3.46692 3.22337 3.37332 3.32591C3.27973 3.42844 3.2085 3.54934 3.16419 3.68091C3.12058 3.81039 3.10397 3.94742 3.11537 4.08353C3.42811 7.01509 4.4263 9.83197 6.02928 12.3064L6.03404 12.3138L6.03401 12.3138C7.49061 14.606 9.43405 16.5495 11.7263 18.0061L11.7341 18.011L11.7341 18.0111C14.1969 19.6082 16.9997 20.6061 19.9176 20.9248C20.0538 20.9361 20.1909 20.9193 20.3204 20.8755C20.4523 20.8309 20.5734 20.7592 20.676 20.6651C20.7787 20.5709 20.8605 20.4564 20.9163 20.3288C20.972 20.2012 21.0006 20.0634 21 19.9242L21 19.9201V16.9201C21 16.9118 21.0001 16.9036 21.0003 16.8953C21.0064 16.6501 20.9221 16.4112 20.7636 16.224C20.6058 16.0378 20.3854 15.9158 20.1439 15.8808C19.1109 15.7442 18.0966 15.4913 17.1204 15.127L17.1181 15.1261C16.9392 15.0589 16.7447 15.0443 16.5577 15.0842C16.3715 15.1239 16.2005 15.216 16.0648 15.3495L14.7971 16.6172C14.4788 16.9355 13.987 17.0019 13.5957 16.7794C10.9357 15.2669 8.73323 13.0644 7.2207 10.4044C6.99819 10.0131 7.06458 9.5213 7.38289 9.20299L8.65053 7.93535C8.78411 7.79966 8.87618 7.62864 8.9159 7.4424C8.95578 7.25541 8.94122 7.06092 8.87395 6.88196L8.8731 6.8797C8.50883 5.90349 8.25596 4.88928 8.11931 3.85633C8.08464 3.61751 7.96476 3.39923 7.78172 3.24181ZM7.10557 1.0001C7.83161 0.99426 8.53521 1.25194 9.0858 1.72544C9.63775 2.20013 9.99827 2.85932 10.1002 3.58015L10.1015 3.58933L10.1014 3.58934C10.2181 4.47427 10.4345 5.34316 10.7465 6.17945C10.9479 6.716 10.9915 7.29903 10.8719 7.85956C10.7523 8.42051 10.4743 8.9354 10.0711 9.34324L10.0671 9.34722L10.0671 9.3472L9.35001 10.0643C10.5259 11.9089 12.0912 13.4742 13.9358 14.6501L14.6529 13.933L14.6569 13.929C15.0647 13.5258 15.5796 13.2478 16.1405 13.1282C16.7011 13.0086 17.2841 13.0522 17.8206 13.2536C18.6569 13.5656 19.5258 13.782 20.4108 13.8987L20.4197 13.8999L20.4197 13.8999C21.1483 14.0027 21.8138 14.3697 22.2895 14.9311C22.7623 15.4891 23.0148 16.2004 23 16.9313V19.9181" fill="#69B99D"/>
</svg>
